<?xml version="1.0" encoding="utf-8"?>
<!-- Generator: Adobe Illustrator 16.0.0, SVG Export Plug-In . SVG Version: 6.00 Build 0)  -->
<!DOCTYPE svg PUBLIC "-//W3C//DTD SVG 1.1//EN" "http://www.w3.org/Graphics/SVG/1.1/DTD/svg11.dtd">
<svg version="1.1" id="Layer_1" xmlns="http://www.w3.org/2000/svg" xmlns:xlink="http://www.w3.org/1999/xlink" x="0px" y="0px"
	 width="554.941px" height="39.417px" viewBox="122.529 186.523 554.941 39.417"
	 enable-background="new 122.529 186.523 554.941 39.417" xml:space="preserve">
<g>
	<g>
		<path fill="#435A70" d="M122.529,212.977l21.461-24.966h2.498v22.312h3.877v6.373h-3.877v8.5h-7.544v-8.5h-16.415V212.977z
			 M131.826,210.32h7.118v-8.605L131.826,210.32z"/>
		<path fill="#435A70" d="M158.012,216.006c2.92,1.912,5.736,3.559,9.72,3.559c3.665,0,7.065-2.071,7.065-7.17
			c0-4.197-2.656-7.278-7.596-7.278c-1.435,0-2.656,0.159-3.931,0.426l-0.745-1.646l7.066-9.508h-12.644v-6.376H180.8v1.062
			l-8.5,10.997c5.95,1.117,9.721,5.152,9.721,12.058c0,8.712-5.576,13.811-14.022,13.811c-4.303,0-7.81-1.113-9.934-2.285
			l-0.851-7.646h0.798V216.006z"/>
		<path fill="#435A70" d="M208.522,213.614c2.496,3.188,5.577,5.845,9.881,5.845c2.921,0,4.992-1.701,4.992-4.675
			c0-3.349-2.443-4.569-6.587-6.481c-5.684-2.603-8.977-5.791-8.977-10.837c0-6.428,5.312-10.199,11.153-10.199
			c4.781,0,7.65,1.381,9.245,2.816l0.264,7.915h-0.69c-2.549-2.763-5.418-4.568-8.657-4.568c-2.71,0-4.569,1.169-4.569,3.719
			c0,2.39,2.284,3.717,7.544,6.162c5.311,2.442,8.817,5.418,8.817,11.314c0,6.691-4.888,11.312-12.164,11.312
			c-5.047,0-8.925-1.697-11.208-3.61l0.425-8.714L208.522,213.614L208.522,213.614z"/>
		<path fill="#435A70" d="M253.405,218.502l-0.478,6.109c-2.231,1.01-3.399,1.326-6.056,1.326c-4.144,0-8.181-2.603-8.181-8.816
			v-12.219h-4.355v-5.949h4.355v-4.354l7.013-3.188v7.543h7.116v5.95h-7.116v11.898c0,2.338,1.274,3.239,2.868,3.239
			c1.114,0,2.337-0.267,4.036-1.54H253.405z"/>
		<path fill="#435A70" d="M307,225.193l-20.451-22.148v22.148h-7.544V188.01h3.188l20.451,22.15v-22.15h7.543v37.184H307z"/>
		<path fill="#435A70" d="M321.815,186.523c2.442,0,4.463,2.019,4.463,4.464c0,2.39-2.021,4.354-4.463,4.354
			c-2.392,0-4.355-1.965-4.355-4.354C317.46,188.542,319.425,186.523,321.815,186.523z M318.362,198.953h7.012v26.24h-7.012V198.953
			z"/>
		<path fill="#435A70" d="M354.058,223.867c-1.965,1.435-4.408,2.07-7.648,2.07c-7.438,0-14.236-5.099-14.236-13.864
			c0-8.763,6.799-13.863,14.236-13.863c3.24,0,5.685,0.637,7.648,2.072l0.267,7.383h-0.744c-2.391-2.07-4.568-2.974-7.171-2.974
			c-4.409,0-7.226,3.134-7.226,7.382c0,4.249,2.815,7.386,7.226,7.386c2.603,0,4.78-0.902,7.171-2.977h0.744L354.058,223.867z"/>
		<path fill="#435A70" d="M379.871,209.789c0-3.505-2.018-5.098-4.993-5.098c-3.347,0-6.374,2.602-6.374,6.959v13.543h-7.013
			v-38.244h7.013v15.246c1.859-2.393,5.365-3.985,8.817-3.985c5.631,0,9.562,2.978,9.562,9.083v17.9h-7.012V209.789z"/>
		<path fill="#435A70" d="M393.041,212.073c0-7.859,6.535-13.863,14.396-13.863c7.86,0,14.396,6.004,14.396,13.863
			c0,7.862-6.534,13.864-14.396,13.864C399.575,225.938,393.041,219.938,393.041,212.073z M414.82,212.073
			c0-4.408-3.399-7.382-7.383-7.382c-3.984,0-7.385,2.974-7.385,7.382c0,4.409,3.399,7.386,7.385,7.386
			C411.421,219.459,414.82,216.482,414.82,212.073z"/>
		<path fill="#435A70" d="M428.31,186.949h7.012v38.244h-7.012V186.949z"/>
		<path fill="#435A70" d="M441.8,212.073c0-7.647,5.844-13.863,13.174-13.863c3.452,0,6.375,1.274,7.861,3.133v-2.39h7.012v26.24
			h-7.012v-2.39c-1.911,1.808-4.091,3.134-8.286,3.134C448.279,225.938,441.8,220.732,441.8,212.073z M463.154,212.073
			c0-4.036-2.71-7.382-7.172-7.382c-4.461,0-7.172,3.346-7.172,7.382c0,4.038,2.711,7.386,7.172,7.386
			C460.444,219.459,463.154,216.111,463.154,212.073z"/>
		<path fill="#435A70" d="M478.344,216.803c1.859,1.434,4.196,2.656,7.064,2.656c1.912,0,3.348-0.691,3.348-2.179
			c0-1.54-1.381-2.23-5.153-3.505c-3.983-1.33-6.374-3.933-6.374-7.438c0-4.94,4.195-8.128,9.668-8.128
			c2.868,0,4.939,0.531,6.905,1.7l0.267,6.692h-0.373c-2.178-1.435-4.035-2.442-6.744-2.442c-1.755,0-3.029,0.797-3.029,1.911
			c0,1.541,1.274,2.285,5.048,3.561c3.664,1.221,6.798,2.762,6.798,7.648c0,5.789-4.779,8.656-9.985,8.656
			c-3.932,0-7.011-1.009-9.351-2.55l1.596-6.585h0.316V216.803z"/>
		<path fill="#435A70" d="M521.366,213.614c2.496,3.188,5.577,5.845,9.881,5.845c2.921,0,4.992-1.701,4.992-4.675
			c0-3.349-2.443-4.569-6.586-6.481c-5.686-2.603-8.979-5.791-8.979-10.837c0-6.428,5.313-10.199,11.156-10.199
			c4.781,0,7.648,1.381,9.242,2.816l0.266,7.915h-0.69c-2.549-2.763-5.417-4.568-8.656-4.568c-2.71,0-4.569,1.169-4.569,3.719
			c0,2.39,2.284,3.717,7.544,6.162c5.312,2.442,8.815,5.418,8.815,11.314c0,6.691-4.885,11.312-12.161,11.312
			c-5.048,0-8.926-1.697-11.209-3.61l0.425-8.714L521.366,213.614L521.366,213.614z"/>
		<path fill="#435A70" d="M566.249,218.502l-0.478,6.109c-2.232,1.01-3.399,1.326-6.057,1.326c-4.144,0-8.181-2.603-8.181-8.816
			v-12.219h-4.357v-5.949h4.357v-4.354l7.012-3.188v7.543h7.118v5.95h-7.118v11.898c0,2.338,1.275,3.239,2.87,3.239
			c1.115,0,2.336-0.267,4.036-1.54H566.249z"/>
		<path fill="#435A70" d="M590.15,206.814c-1.062-1.273-2.815-2.123-4.623-2.123c-3.024,0-5.842,1.857-5.842,6.213v14.289h-7.014
			v-26.24h7.014v2.604c1.646-2.124,4.194-3.347,6.745-3.347c2.02,0,3.135,0.425,4.249,1.223l0.479,7.383h-1.009V206.814z"/>
		<path fill="#435A70" d="M620.162,216.537l-0.268,6.639c-3.398,1.965-6.903,2.762-10.411,2.762
			c-7.968,0-14.234-6.105-14.234-14.074c0-7.702,5.948-13.652,13.544-13.652c8.925,0,13.282,6.587,13.282,13.652v2.07H601.94
			c0.798,3.984,3.935,6.056,8.022,6.056c3.187,0,6.318-0.743,9.452-3.451L620.162,216.537L620.162,216.537z M602.101,209.152h12.964
			c-0.372-3.24-2.923-5.525-6.271-5.525C605.714,203.627,603.056,205.595,602.101,209.152z"/>
		<path fill="#435A70" d="M652.296,216.537l-0.266,6.639c-3.399,1.965-6.906,2.762-10.413,2.762
			c-7.967,0-14.234-6.105-14.234-14.074c0-7.702,5.948-13.652,13.545-13.652c8.923,0,13.28,6.587,13.28,13.652v2.07h-20.134
			c0.797,3.984,3.934,6.056,8.021,6.056c3.187,0,6.319-0.743,9.453-3.451L652.296,216.537L652.296,216.537z M634.234,209.152h12.964
			c-0.372-3.24-2.923-5.525-6.271-5.525C637.848,203.627,635.189,205.595,634.234,209.152z"/>
		<path fill="#435A70" d="M677.47,218.502l-0.478,6.109c-2.23,1.01-3.399,1.326-6.057,1.326c-4.144,0-8.181-2.603-8.181-8.816
			v-12.219H658.4v-5.949h4.354v-4.354l7.014-3.188v7.543h7.115v5.95h-7.115v11.898c0,2.338,1.273,3.239,2.866,3.239
			c1.115,0,2.338-0.267,4.037-1.54H677.47z"/>
	</g>
</g>
</svg>
