<?xml version="1.0" encoding="utf-8"?>
<!-- Generator: Adobe Illustrator 16.0.0, SVG Export Plug-In . SVG Version: 6.00 Build 0)  -->
<!DOCTYPE svg PUBLIC "-//W3C//DTD SVG 1.1//EN" "http://www.w3.org/Graphics/SVG/1.1/DTD/svg11.dtd">
<svg version="1.1" id="Layer_1" xmlns="http://www.w3.org/2000/svg" xmlns:xlink="http://www.w3.org/1999/xlink" x="0px" y="0px"
	 width="784.298px" height="72.532px" viewBox="0 0 784.298 72.532" enable-background="new 0 0 784.298 72.532"
	 xml:space="preserve">
<g>
	<path fill="#FFFFFF" d="M0,1.904h11.695c14.891,0,25.361,8.703,25.361,23.797c0,15.095-10.471,23.798-25.361,23.798H0V1.904z
		 M9.655,41.204h2.04c9.995,0,16.114-5.916,16.114-15.503c0-9.587-6.119-15.502-16.114-15.502h-2.04V41.204z"/>
	<path fill="#FFFFFF" d="M72.893,38.416l-0.34,8.499c-4.352,2.516-8.839,3.536-13.327,3.536c-10.199,0-18.222-7.819-18.222-18.019
		c0-9.859,7.615-17.474,17.338-17.474c11.423,0,16.998,8.431,16.998,17.474v2.652h-25.77c1.02,5.1,5.032,7.751,10.267,7.751
		c4.08,0,8.091-0.952,12.103-4.42H72.893z M49.775,28.965h16.59c-0.476-4.147-3.74-7.071-8.023-7.071
		C54.398,21.894,50.999,24.41,49.775,28.965z"/>
	<path fill="#FFFFFF" d="M82.006,38.756c2.38,1.836,5.372,3.4,9.043,3.4c2.448,0,4.284-0.884,4.284-2.788
		c0-1.972-1.768-2.856-6.596-4.488c-5.1-1.7-8.159-5.031-8.159-9.519c0-6.323,5.372-10.403,12.375-10.403
		c3.671,0,6.323,0.68,8.839,2.176l0.34,8.567h-0.476c-2.788-1.835-5.167-3.127-8.635-3.127c-2.244,0-3.875,1.02-3.875,2.448
		c0,1.972,1.632,2.924,6.459,4.556c4.692,1.563,8.703,3.536,8.703,9.791c0,7.411-6.119,11.083-12.782,11.083
		c-5.032,0-8.976-1.292-11.967-3.264l2.04-8.432H82.006z"/>
	<path fill="#FFFFFF" d="M114.578,0c3.128,0,5.711,2.584,5.711,5.711c0,3.06-2.583,5.576-5.711,5.576
		c-3.06,0-5.575-2.516-5.575-5.576C109.003,2.584,111.519,0,114.578,0z M110.159,15.91h8.975v33.589h-8.975V15.91z"/>
	<path fill="#FFFFFF" d="M132.462,54.667c2.312,1.632,5.303,2.856,9.315,2.856c6.052,0,9.723-3.264,9.723-9.451v-2.176
		c-1.972,2.04-5.372,3.604-9.791,3.604c-9.383,0-16.59-7.479-16.59-17.271c0-11.083,8.635-17.27,16.522-17.27
		c5.167,0,7.955,1.836,9.859,4.012v-3.06h8.975v30.529c0,13.938-7.751,19.378-18.698,19.378c-4.963,0-8.159-1.088-10.743-2.652
		l-0.34-8.499H132.462z M134.094,32.229c0,4.76,3.196,8.976,8.907,8.976s8.907-4.216,8.907-8.976c0-4.759-3.195-8.975-8.907-8.975
		S134.094,27.469,134.094,32.229z"/>
	<path fill="#FFFFFF" d="M190.803,29.781c0-4.488-2.72-6.527-6.392-6.527c-4.283,0-7.615,3.332-7.615,8.907v17.338h-8.975V15.91
		h8.975v4.148c2.38-3.06,6.596-5.1,11.015-5.1c7.071,0,11.967,3.808,11.967,11.627v22.914h-8.975V29.781z"/>
	<path fill="#FFFFFF" d="M237.111,45.963v3.536h-8.975V0.544h8.975v18.562c2.448-2.788,5.983-4.147,10.675-4.147
		c9.179,0,16.658,6.459,16.658,17.746c0,10.403-7.003,17.747-16.522,17.747C242.958,50.451,239.491,48.615,237.111,45.963z
		 M255.469,32.705c0-5.439-3.808-9.451-9.383-9.451c-5.576,0-9.383,4.011-9.383,9.451s3.808,9.451,9.383,9.451
		C251.662,42.156,255.469,38.144,255.469,32.705z"/>
	<path fill="#FFFFFF" d="M277.571,42.972L264.38,15.91h9.247l8.227,17.61l8.159-17.61h9.247l-23.797,48.955h-9.247L277.571,42.972z"
		/>
	<path fill="#FFFFFF" d="M325.306,34.677c3.196,4.079,7.14,7.479,12.647,7.479c3.74,0,6.391-2.176,6.391-5.983
		c0-4.284-3.127-5.847-8.431-8.295c-7.275-3.332-11.491-7.411-11.491-13.87c0-8.228,6.799-13.055,14.278-13.055
		c6.12,0,9.791,1.768,11.831,3.604l0.34,10.131h-0.884c-3.264-3.536-6.936-5.848-11.083-5.848c-3.468,0-5.847,1.496-5.847,4.76
		c0,3.06,2.923,4.76,9.655,7.887C349.512,24.613,354,28.421,354,35.968c0,8.567-6.255,14.483-15.57,14.483
		c-6.459,0-11.423-2.176-14.347-4.624l0.544-11.15H325.306z"/>
	<path fill="#FFFFFF" d="M380.113,40.932l-0.612,7.819c-2.855,1.292-4.352,1.7-7.751,1.7c-5.304,0-10.471-3.332-10.471-11.287
		V23.525h-5.575V15.91h5.575v-5.575l8.975-4.08v9.655h9.111v7.615h-9.111v15.23c0,2.992,1.632,4.148,3.672,4.148
		c1.428,0,2.992-0.34,5.167-1.972H380.113z"/>
	<path fill="#FFFFFF" d="M394.258,35.628c0,4.488,2.72,6.527,6.391,6.527c4.284,0,7.615-3.332,7.615-8.907V15.91h8.976v33.589
		h-8.976v-4.147c-2.379,3.06-6.595,5.1-11.015,5.1c-7.071,0-11.967-3.808-11.967-11.627V15.91h8.975V35.628z"/>
	<path fill="#FFFFFF" d="M422.818,32.705c0-11.287,7.479-17.746,16.659-17.746c4.691,0,8.227,1.36,10.675,4.147V0.544h8.975v48.955
		h-8.975v-3.536c-2.38,2.652-5.848,4.488-10.812,4.488C429.822,50.451,422.818,43.107,422.818,32.705z M450.559,32.705
		c0-5.439-3.807-9.451-9.383-9.451c-5.575,0-9.383,4.011-9.383,9.451s3.808,9.451,9.383,9.451
		C446.752,42.156,450.559,38.144,450.559,32.705z"/>
	<path fill="#FFFFFF" d="M471.301,0c3.128,0,5.712,2.584,5.712,5.711c0,3.06-2.584,5.576-5.712,5.576
		c-3.06,0-5.575-2.516-5.575-5.576C465.726,2.584,468.242,0,471.301,0z M466.881,15.91h8.976v33.589h-8.976V15.91z"/>
	<path fill="#FFFFFF" d="M481.842,32.705c0-10.063,8.362-17.746,18.426-17.746c10.062,0,18.426,7.683,18.426,17.746
		s-8.363,17.747-18.426,17.747C490.205,50.451,481.842,42.768,481.842,32.705z M509.719,32.705c0-5.643-4.352-9.451-9.451-9.451
		s-9.451,3.808-9.451,9.451c0,5.644,4.352,9.451,9.451,9.451S509.719,38.348,509.719,32.705z"/>
	<path fill="#FFFFFF" d="M542.701,1.904h32.501v8.159h-11.424v39.436h-9.654V10.063h-11.423V1.904z"/>
	<path fill="#FFFFFF" d="M604.442,29.781c0-4.488-2.584-6.527-6.392-6.527c-4.283,0-8.159,3.332-8.159,8.907v17.338h-8.975V0.544
		h8.975v19.514c2.38-3.06,6.867-5.1,11.287-5.1c7.207,0,12.238,3.808,12.238,11.627v22.914h-8.975V29.781z"/>
	<path fill="#FFFFFF" d="M618.588,32.705c0-10.063,8.362-17.746,18.426-17.746c10.062,0,18.426,7.683,18.426,17.746
		s-8.363,17.747-18.426,17.747C626.951,50.451,618.588,42.768,618.588,32.705z M646.465,32.705c0-5.643-4.352-9.451-9.451-9.451
		s-9.451,3.808-9.451,9.451c0,5.644,4.352,9.451,9.451,9.451S646.465,38.348,646.465,32.705z"/>
	<path fill="#FFFFFF" d="M703.787,29.237c0-4.08-1.904-5.983-5.168-5.983c-3.943,0-7.207,3.264-7.207,8.159v18.086h-8.975V29.237
		c0-4.08-1.769-5.983-5.235-5.983c-3.944,0-7.208,3.399-7.208,8.499v17.746h-8.975V15.91h8.975v4.148
		c2.108-2.924,6.46-5.1,10.607-5.1c4.556,0,8.091,1.496,9.858,4.759c2.924-3.06,6.527-4.759,11.56-4.759
		c6.459,0,10.742,3.944,10.742,10.675v23.866h-8.975V29.237z"/>
	<path fill="#FFFFFF" d="M717.934,32.705c0-9.791,7.479-17.746,16.863-17.746c4.419,0,8.158,1.632,10.062,4.012v-3.06h8.975v33.589
		h-8.975v-3.06c-2.447,2.312-5.235,4.012-10.607,4.012C726.23,50.451,717.934,43.788,717.934,32.705z M745.268,32.705
		c0-5.167-3.468-9.451-9.18-9.451c-5.711,0-9.179,4.283-9.179,9.451s3.468,9.451,9.179,9.451
		C741.8,42.156,745.268,37.872,745.268,32.705z"/>
	<path fill="#FFFFFF" d="M761.997,38.756c2.38,1.836,5.372,3.4,9.043,3.4c2.448,0,4.284-0.884,4.284-2.788
		c0-1.972-1.769-2.856-6.596-4.488c-5.1-1.7-8.159-5.031-8.159-9.519c0-6.323,5.371-10.403,12.375-10.403
		c3.672,0,6.323,0.68,8.839,2.176l0.34,8.567h-0.476c-2.788-1.835-5.168-3.127-8.635-3.127c-2.244,0-3.876,1.02-3.876,2.448
		c0,1.972,1.632,2.924,6.459,4.556c4.691,1.563,8.703,3.536,8.703,9.791c0,7.411-6.119,11.083-12.782,11.083
		c-5.031,0-8.976-1.292-11.967-3.264l2.039-8.432H761.997z"/>
</g>
<g>
	<line fill="#FFFFFF" x1="323.805" y1="69.532" x2="783.805" y2="69.532"/>
	<rect x="323.805" y="65.532" fill="#FFFFFF" width="460" height="7"/>
</g>
</svg>
