<?xml version="1.0" encoding="utf-8"?>
<!-- Generator: Adobe Illustrator 16.0.0, SVG Export Plug-In . SVG Version: 6.00 Build 0)  -->
<!DOCTYPE svg PUBLIC "-//W3C//DTD SVG 1.1//EN" "http://www.w3.org/Graphics/SVG/1.1/DTD/svg11.dtd">
<svg version="1.1" id="Layer_1" xmlns="http://www.w3.org/2000/svg" xmlns:xlink="http://www.w3.org/1999/xlink" x="0px" y="0px"
	 width="687.834px" height="50.33px" viewBox="51.988 175.091 687.834 50.33" enable-background="new 51.988 175.091 687.834 50.33"
	 xml:space="preserve">
<g>
	<path fill="#435A70" d="M51.988,176.567h7.492v30.6h18.041v6.33H51.988V176.567z"/>
	<path fill="#435A70" d="M81.951,200.466c0-7.807,6.49-13.77,14.297-13.77c7.809,0,14.297,5.963,14.297,13.77
		c0,7.81-6.488,13.771-14.297,13.771C88.441,214.234,81.951,208.273,81.951,200.466z M103.58,200.466
		c0-4.379-3.375-7.332-7.332-7.332s-7.334,2.953-7.334,7.332s3.377,7.334,7.334,7.334S103.58,204.845,103.58,200.466z"/>
	<path fill="#435A70" d="M137.344,212.18c-1.953,1.424-4.379,2.057-7.598,2.057c-7.387,0-14.139-5.062-14.139-13.771
		c0-8.703,6.752-13.77,14.139-13.77c3.219,0,5.645,0.633,7.598,2.059l0.264,7.332h-0.74c-2.373-2.057-4.535-2.953-7.121-2.953
		c-4.379,0-7.176,3.111-7.176,7.332c0,4.222,2.797,7.334,7.176,7.334c2.586,0,4.748-0.896,7.121-2.955h0.74L137.344,212.18z"/>
	<path fill="#435A70" d="M143.408,200.466c0-7.596,5.803-13.77,13.084-13.77c3.428,0,6.33,1.266,7.807,3.113v-2.375h6.965v26.062
		h-6.965v-2.373c-1.898,1.795-4.062,3.111-8.229,3.111C149.844,214.234,143.408,209.064,143.408,200.466z M164.615,200.466
		c0-4.01-2.689-7.332-7.121-7.332c-4.432,0-7.123,3.322-7.123,7.332c0,4.011,2.691,7.334,7.123,7.334
		C161.926,207.8,164.615,204.477,164.615,200.466z"/>
	<path fill="#435A70" d="M179.068,175.513h6.963v37.984h-6.963V175.513z"/>
	<path fill="#435A70" d="M197.32,206.111c2.268,0,4.115,1.847,4.115,4.113c0,2.217-1.848,4.01-4.115,4.01
		c-2.217,0-4.01-1.793-4.01-4.01C193.311,207.958,195.104,206.111,197.32,206.111z"/>
	<path fill="#435A70" d="M227.811,201.997c2.479,3.166,5.539,5.803,9.812,5.803c2.9,0,4.959-1.688,4.959-4.643
		c0-3.324-2.428-4.537-6.541-6.438c-5.646-2.584-8.916-5.75-8.916-10.762c0-6.385,5.275-10.129,11.078-10.129
		c4.748,0,7.598,1.371,9.18,2.797l0.264,7.859h-0.686c-2.531-2.742-5.381-4.537-8.6-4.537c-2.689,0-4.537,1.162-4.537,3.693
		c0,2.375,2.27,3.693,7.492,6.121c5.275,2.426,8.756,5.381,8.756,11.236c0,6.647-4.852,11.235-12.08,11.235
		c-5.012,0-8.863-1.686-11.131-3.586l0.422-8.651h0.528V201.997z"/>
	<path fill="#435A70" d="M280.037,204.898l-0.264,6.595c-3.377,1.95-6.857,2.741-10.342,2.741c-7.912,0-14.139-6.063-14.139-13.979
		c0-7.648,5.91-13.559,13.453-13.559c8.863,0,13.189,6.543,13.189,13.559v2.058H261.94c0.791,3.959,3.904,6.016,7.967,6.016
		c3.164,0,6.277-0.738,9.391-3.428h0.739V204.898z M262.1,197.563h12.873c-0.369-3.217-2.902-5.486-6.227-5.486
		C265.688,192.077,263.049,194.03,262.1,197.563z"/>
	<path fill="#435A70" d="M287.207,200.466c0-7.596,5.805-13.77,13.086-13.77c3.428,0,6.33,1.266,7.807,3.113v-2.375h6.966v26.062
		H308.1v-2.373c-1.897,1.795-4.062,3.111-8.229,3.111C293.645,214.234,287.207,209.064,287.207,200.466z M308.416,200.466
		c0-4.01-2.689-7.332-7.121-7.332s-7.123,3.322-7.123,7.332c0,4.011,2.691,7.334,7.123,7.334S308.416,204.477,308.416,200.466z"/>
	<path fill="#435A70" d="M323.502,205.163c1.846,1.422,4.168,2.637,7.016,2.637c1.9,0,3.324-0.686,3.324-2.161
		c0-1.531-1.371-2.218-5.117-3.482c-3.957-1.32-6.33-3.904-6.33-7.387c0-4.906,4.166-8.072,9.601-8.072
		c2.85,0,4.908,0.527,6.858,1.688l0.267,6.648h-0.371c-2.162-1.426-4.008-2.428-6.699-2.428c-1.742,0-3.008,0.791-3.008,1.898
		c0,1.531,1.266,2.27,5.012,3.535c3.642,1.213,6.754,2.744,6.754,7.598c0,5.75-4.747,8.598-9.92,8.598
		c-3.901,0-6.963-1.002-9.282-2.53l1.582-6.541H323.502z"/>
	<path fill="#435A70" d="M345.393,200.466c0-7.807,6.49-13.77,14.3-13.77c7.809,0,14.297,5.963,14.297,13.77
		c0,7.81-6.488,13.771-14.297,13.771C351.883,214.236,345.393,208.273,345.393,200.466z M367.023,200.466
		c0-4.379-3.375-7.332-7.332-7.332s-7.334,2.953-7.334,7.332s3.377,7.334,7.334,7.334S367.023,204.845,367.023,200.466z"/>
	<path fill="#435A70" d="M398.254,198.196c0-3.48-2.109-5.062-4.959-5.062c-3.324,0-5.908,2.584-5.908,6.912v13.451h-6.965v-26.062
		h6.965v3.221c1.847-2.375,5.117-3.959,8.545-3.959c5.488,0,9.287,2.955,9.287,9.021v17.779h-6.965V198.196z"/>
	<path fill="#435A70" d="M411.334,200.466c0-7.596,5.805-13.77,13.084-13.77c3.428,0,6.33,1.266,7.807,3.113v-2.375h6.966v26.062
		h-6.966v-2.373c-1.897,1.795-4.061,3.111-8.229,3.111C417.77,214.234,411.334,209.064,411.334,200.466z M432.543,200.466
		c0-4.01-2.693-7.332-7.123-7.332s-7.123,3.322-7.123,7.332c0,4.011,2.693,7.334,7.123,7.334S432.543,204.477,432.543,200.466z"/>
	<path fill="#435A70" d="M446.992,175.513h6.965v37.984h-6.965V175.513z"/>
	<path fill="#435A70" d="M465.246,206.111c2.268,0,4.115,1.847,4.115,4.113c0,2.217-1.849,4.01-4.115,4.01
		c-2.215,0-4.01-1.793-4.01-4.01C461.236,207.958,463.031,206.111,465.246,206.111z"/>
	<path fill="#435A70" d="M495.736,201.997c2.479,3.166,5.539,5.803,9.812,5.803c2.902,0,4.959-1.688,4.959-4.643
		c0-3.324-2.426-4.537-6.543-6.438c-5.645-2.584-8.914-5.75-8.914-10.762c0-6.385,5.273-10.129,11.078-10.129
		c4.748,0,7.601,1.371,9.182,2.797l0.265,7.859h-0.688c-2.533-2.742-5.381-4.537-8.6-4.537c-2.691,0-4.537,1.162-4.537,3.693
		c0,2.375,2.27,3.693,7.492,6.121c5.274,2.426,8.758,5.381,8.758,11.236c0,6.647-4.854,11.235-12.082,11.235
		c-5.012,0-8.865-1.686-11.131-3.586l0.42-8.651h0.53V201.997z"/>
	<path fill="#435A70" d="M552.764,200.466c0,8.759-5.805,13.771-12.926,13.771c-3.641,0-6.385-1.053-8.281-3.217v14.401h-6.965
		v-37.986h6.965v2.744c1.847-2.057,4.535-3.482,8.39-3.482C547.33,186.696,552.764,192.396,552.764,200.466z M531.238,200.466
		c0,4.222,2.955,7.334,7.28,7.334c4.326,0,7.281-3.112,7.281-7.334c0-4.221-2.955-7.332-7.281-7.332
		C534.193,193.134,531.238,196.245,531.238,200.466z"/>
	<path fill="#435A70" d="M582.518,204.898l-0.264,6.595c-3.377,1.95-6.859,2.741-10.344,2.741c-7.912,0-14.137-6.063-14.137-13.979
		c0-7.648,5.907-13.559,13.452-13.559c8.863,0,13.189,6.543,13.189,13.559v2.058H564.42c0.791,3.959,3.906,6.016,7.967,6.016
		c3.164,0,6.277-0.738,9.392-3.428h0.739V204.898z M564.578,197.563h12.875c-0.369-3.217-2.902-5.486-6.228-5.486
		C568.168,192.077,565.527,194.03,564.578,197.563z"/>
	<path fill="#435A70" d="M611.424,212.18c-1.953,1.424-4.379,2.057-7.598,2.057c-7.385,0-14.137-5.062-14.137-13.771
		c0-8.703,6.752-13.77,14.137-13.77c3.219,0,5.645,0.633,7.598,2.059l0.264,7.332h-0.739c-2.373-2.057-4.535-2.953-7.121-2.953
		c-4.379,0-7.174,3.111-7.174,7.332c0,4.222,2.795,7.334,7.174,7.334c2.586,0,4.748-0.896,7.121-2.955h0.739L611.424,212.18z"/>
	<path fill="#435A70" d="M622.607,175.091c2.426,0,4.43,2.004,4.43,4.432c0,2.375-2.004,4.326-4.43,4.326
		c-2.377,0-4.328-1.951-4.328-4.326C618.279,177.095,620.23,175.091,622.607,175.091z M619.178,187.435h6.963v26.062h-6.963V187.435
		z"/>
	<path fill="#435A70" d="M632.838,200.466c0-7.596,5.805-13.77,13.086-13.77c3.43,0,6.332,1.266,7.81,3.113v-2.375h6.963v26.062
		h-6.963v-2.373c-1.9,1.795-4.064,3.111-8.23,3.111C639.275,214.234,632.838,209.064,632.838,200.466z M654.047,200.466
		c0-4.01-2.688-7.332-7.121-7.332c-4.434,0-7.123,3.322-7.123,7.332c0,4.011,2.689,7.334,7.123,7.334
		C651.357,207.8,654.047,204.477,654.047,200.466z"/>
	<path fill="#435A70" d="M668.5,175.513h6.963v37.984H668.5V175.513z"/>
	<path fill="#435A70" d="M687.016,175.091c2.427,0,4.431,2.004,4.431,4.432c0,2.375-2.004,4.326-4.431,4.326
		c-2.373,0-4.328-1.951-4.328-4.326C682.688,177.095,684.643,175.091,687.016,175.091z M683.586,187.435h6.963v26.062h-6.963
		V187.435z"/>
	<path fill="#435A70" d="M699.307,205.163c1.847,1.422,4.168,2.637,7.019,2.637c1.897,0,3.324-0.686,3.324-2.161
		c0-1.531-1.373-2.218-5.117-3.482c-3.959-1.32-6.332-3.904-6.332-7.387c0-4.906,4.168-8.072,9.602-8.072
		c2.849,0,4.906,0.527,6.857,1.688l0.268,6.648h-0.373c-2.159-1.426-4.006-2.428-6.698-2.428c-1.742,0-3.007,0.791-3.007,1.898
		c0,1.531,1.265,2.27,5.013,3.535c3.641,1.213,6.752,2.744,6.752,7.598c0,5.75-4.748,8.598-9.918,8.598
		c-3.904,0-6.963-1.002-9.283-2.53l1.578-6.541H699.307z"/>
	<path fill="#435A70" d="M739.822,206.852l-0.476,6.067c-2.215,1.002-3.377,1.315-6.014,1.315c-4.115,0-8.125-2.584-8.125-8.758
		v-12.133h-4.326v-5.91h4.326v-4.324l6.965-3.168v7.492h7.066v5.91h-7.066v11.818c0,2.32,1.267,3.217,2.849,3.217
		c1.106,0,2.321-0.264,4.008-1.529h0.793V206.852z"/>
</g>
</svg>
