<?xml version="1.0" encoding="utf-8"?>
<!-- Generator: Adobe Illustrator 16.0.0, SVG Export Plug-In . SVG Version: 6.00 Build 0)  -->
<!DOCTYPE svg PUBLIC "-//W3C//DTD SVG 1.1//EN" "http://www.w3.org/Graphics/SVG/1.1/DTD/svg11.dtd">
<svg version="1.1" id="Layer_1" xmlns="http://www.w3.org/2000/svg" xmlns:xlink="http://www.w3.org/1999/xlink" x="0px" y="0px"
	 width="544.19px" height="39.509px" viewBox="151.856 178.126 544.19 39.509"
	 enable-background="new 151.856 178.126 544.19 39.509" xml:space="preserve">
<g>
	<path fill="#435A70" d="M151.856,178.887h25.938v6.512h-9.115v31.475h-7.707v-31.475h-9.115L151.856,178.887L151.856,178.887z"/>
	<path fill="#435A70" d="M191.358,205.803c0,3.582,2.172,5.211,5.102,5.211c3.42,0,6.078-2.66,6.078-7.108v-13.84h7.164v26.809
		h-7.164v-3.31c-1.898,2.441-5.264,4.068-8.791,4.068c-5.645,0-9.551-3.037-9.551-9.279v-18.289h7.162V205.803L191.358,205.803z"/>
	<path fill="#435A70" d="M241.771,208.029l-0.271,6.781c-3.475,2.008-7.055,2.821-10.639,2.821c-8.139,0-14.543-6.239-14.543-14.381
		c0-7.869,6.078-13.947,13.838-13.947c9.117,0,13.566,6.73,13.566,13.947v2.115h-20.566c0.813,4.071,4.016,6.188,8.195,6.188
		c3.256,0,6.457-0.761,9.658-3.525H241.771L241.771,208.029z M223.319,200.484h13.24c-0.379-3.311-2.984-5.645-6.404-5.645
		C227.009,194.84,224.294,196.85,223.319,200.484z"/>
	<path fill="#435A70" d="M251.86,196.795h25.94v5.752h-25.94V196.795z"/>
	<path fill="#435A70" d="M287.509,205.043c2.551,3.258,5.699,5.971,10.094,5.971c2.984,0,5.102-1.738,5.102-4.774
		c0-3.421-2.496-4.669-6.729-6.621c-5.809-2.66-9.172-5.916-9.172-11.072c0-6.566,5.426-10.418,11.395-10.418
		c4.885,0,7.815,1.41,9.442,2.877l0.271,8.086h-0.705c-2.605-2.822-5.535-4.668-8.846-4.668c-2.768,0-4.668,1.193-4.668,3.799
		c0,2.443,2.334,3.799,7.707,6.295c5.426,2.496,9.008,5.535,9.008,11.559c0,6.838-4.992,11.559-12.426,11.559
		c-5.156,0-9.119-1.734-11.451-3.689l0.434-8.899h0.543V205.043z"/>
	<path fill="#435A70" d="M315.835,203.469c0-7.812,5.969-14.164,13.457-14.164c3.527,0,6.514,1.303,8.031,3.201v-2.441h7.164v26.809
		h-7.164v-2.44c-1.951,1.846-4.177,3.2-8.465,3.2C322.456,217.633,315.835,212.314,315.835,203.469z M337.651,203.469
		c0-4.123-2.771-7.541-7.326-7.541c-4.562,0-7.326,3.418-7.326,7.541c0,4.125,2.766,7.545,7.326,7.545
		C334.882,211.014,337.651,207.594,337.651,203.469z"/>
	<path fill="#435A70" d="M369.444,210.035l-0.484,6.242c-2.281,1.031-3.477,1.354-6.188,1.354c-4.233,0-8.358-2.657-8.358-9.008
		v-12.482h-4.449v-6.078h4.449v-4.449l7.166-3.256v7.705h7.27v6.078h-7.27V208.3c0,2.388,1.299,3.31,2.93,3.31
		c1.14,0,2.39-0.271,4.123-1.574H369.444z"/>
	<path fill="#435A70" d="M379.646,190.824c2.332,0,4.231,1.9,4.231,4.234c0,2.279-1.899,4.125-4.231,4.125
		c-2.277,0-4.125-1.846-4.125-4.125C375.521,192.725,377.368,190.824,379.646,190.824z M379.646,209.275
		c2.332,0,4.231,1.899,4.231,4.231c0,2.279-1.899,4.125-4.231,4.125c-2.277,0-4.125-1.846-4.125-4.125
		C375.521,211.176,377.368,209.275,379.646,209.275z"/>
	<path fill="#435A70" d="M413.884,208.572c2.604,2.006,4.666,2.549,6.894,2.549c4.774,0,8.248-3.852,8.897-10.473
		c-1.518,1.465-4.61,2.819-8.084,2.819c-7.002,0-12.049-5.1-12.049-12.262c0-7.273,6.08-13.08,13.512-13.08
		c4.398,0,8.523,1.791,10.91,5.102c2.277,3.146,3.418,7.326,3.418,12.807c0,11.18-5.209,21.598-16.604,21.598
		c-2.822,0-5.154-0.596-7.056-1.846l-0.76-7.215H413.884z M429.403,190.936c0-3.582-2.388-6.295-6.238-6.295
		c-3.855,0-6.24,2.713-6.24,6.295c0,3.58,2.386,6.295,6.24,6.295C427.017,197.23,429.403,194.516,429.403,190.936z"/>
	<path fill="#435A70" d="M448.179,209.275c2.334,0,4.232,1.899,4.232,4.231c0,2.279-1.898,4.125-4.232,4.125
		c-2.28,0-4.125-1.846-4.125-4.125C444.054,211.176,445.896,209.275,448.179,209.275z"/>
	<path fill="#435A70" d="M460.983,207.486c2.983,1.953,5.86,3.635,9.93,3.635c3.744,0,7.221-2.117,7.221-7.324
		c0-4.289-2.717-7.438-7.762-7.438c-1.465,0-2.713,0.164-4.016,0.436l-0.761-1.684l7.217-9.713h-12.915v-6.512h24.366v1.086
		l-8.684,11.234c6.078,1.139,9.932,5.264,9.932,12.317c0,8.898-5.696,14.107-14.326,14.107c-4.397,0-7.979-1.139-10.146-2.334
		l-0.871-7.812h0.814V207.486z"/>
	<path fill="#435A70" d="M509.224,178.127c10.31,0,16.769,8.412,16.769,19.754c0,11.34-6.459,19.752-16.769,19.752
		c-10.311,0-16.77-8.412-16.77-19.752C492.454,186.539,498.913,178.127,509.224,178.127z M509.224,211.014
		c6.076,0,9.062-4.938,9.062-13.133c0-8.195-2.984-13.133-9.062-13.133s-9.063,4.938-9.063,13.133
		C500.159,206.074,503.146,211.014,509.224,211.014z"/>
	<path fill="#435A70" d="M532.663,196.795h25.938v5.752h-25.938V196.795z"/>
	<path fill="#435A70" d="M566.089,182.414l5.156-3.527h2.549v37.986h-7.705V182.414z"/>
	<path fill="#435A70" d="M590.505,216.873h-8.356l15.955-31.475h-16.498v-6.512h27.403v1.086L590.505,216.873z"/>
	<path fill="#435A70" d="M618.231,209.275c2.334,0,4.231,1.899,4.231,4.231c0,2.279-1.897,4.125-4.231,4.125
		c-2.277,0-4.125-1.846-4.125-4.125C614.106,211.176,615.954,209.275,618.231,209.275z"/>
	<path fill="#435A70" d="M631.038,207.486c2.984,1.953,5.859,3.635,9.932,3.635c3.742,0,7.216-2.117,7.216-7.324
		c0-4.289-2.712-7.438-7.759-7.438c-1.467,0-2.715,0.164-4.018,0.436l-0.76-1.684l7.219-9.713h-12.916v-6.512h24.367v1.086
		l-8.687,11.234c6.08,1.139,9.933,5.264,9.933,12.317c0,8.898-5.697,14.107-14.326,14.107c-4.396,0-7.979-1.139-10.148-2.334
		l-0.867-7.812h0.814V207.486z"/>
	<path fill="#435A70" d="M679.278,178.127c10.311,0,16.768,8.412,16.768,19.754c0,11.34-6.457,19.752-16.768,19.752
		c-10.312,0-16.769-8.412-16.769-19.752C662.511,186.539,668.968,178.127,679.278,178.127z M679.278,211.014
		c6.078,0,9.062-4.938,9.062-13.133c0-8.195-2.983-13.133-9.062-13.133s-9.062,4.938-9.062,13.133
		C670.216,206.074,673.2,211.014,679.278,211.014z"/>
</g>
</svg>
