<?xml version="1.0" encoding="utf-8"?>
<!-- Generator: Adobe Illustrator 16.0.0, SVG Export Plug-In . SVG Version: 6.00 Build 0)  -->
<!DOCTYPE svg PUBLIC "-//W3C//DTD SVG 1.1//EN" "http://www.w3.org/Graphics/SVG/1.1/DTD/svg11.dtd">
<svg version="1.1" id="Layer_1" xmlns="http://www.w3.org/2000/svg" xmlns:xlink="http://www.w3.org/1999/xlink" x="0px" y="0px"
	 width="793.074px" height="44.564px" viewBox="2.591 9.693 793.074 44.564" enable-background="new 2.591 9.693 793.074 44.564"
	 xml:space="preserve">
<g>
	<path fill="#435A70" d="M31.713,33.012c0,9.275-5.337,15.131-14.561,15.131c-9.224,0-14.561-5.855-14.561-15.131V11.144h7.358
		v22.49c0,6.425,3.523,8.291,7.203,8.291s7.203-1.866,7.203-8.291v-22.49h7.358V33.012z"/>
	<path fill="#435A70" d="M55.657,32.39c0-3.42-2.073-4.975-4.871-4.975c-3.265,0-5.804,2.539-5.804,6.788v13.214h-6.84V21.819h6.84
		v3.161c1.814-2.332,5.026-3.887,8.395-3.887c5.39,0,9.12,2.902,9.12,8.861v17.463h-6.84V32.39z"/>
	<path fill="#435A70" d="M72.502,9.693c2.383,0,4.353,1.969,4.353,4.353c0,2.332-1.969,4.249-4.353,4.249
		c-2.332,0-4.25-1.917-4.25-4.249C68.252,11.663,70.17,9.693,72.502,9.693z M69.134,21.819h6.84v25.599h-6.84V21.819z"/>
	<path fill="#435A70" d="M99.087,40.888l-0.466,5.96c-2.177,0.984-3.316,1.295-5.908,1.295c-4.042,0-7.98-2.539-7.98-8.602V27.623
		h-4.249v-5.804h4.249V17.57l6.84-3.109v7.358h6.943v5.804h-6.943V39.23c0,2.28,1.244,3.161,2.798,3.161
		c1.088,0,2.28-0.259,3.938-1.503H99.087z"/>
	<path fill="#435A70" d="M133.55,10.419c6.581,0,11.245,4.301,11.245,9.535c0,3.316-1.451,5.7-4.146,7.877
		c3.109,1.762,5.441,4.353,5.441,9.224c0,5.078-4.508,11.089-12.541,11.089c-8.032,0-12.54-6.011-12.54-11.089
		c0-4.871,2.332-7.462,5.441-9.224c-2.694-2.177-4.146-4.561-4.146-7.877C122.305,14.72,126.969,10.419,133.55,10.419z
		 M128.057,36.277c0,3.42,2.643,5.648,5.493,5.648s5.493-2.229,5.493-5.648s-2.643-5.648-5.493-5.648S128.057,32.857,128.057,36.277
		z M137.747,20.524c0-2.384-1.606-4.198-4.197-4.198c-2.591,0-4.197,1.813-4.197,4.198c0,2.384,1.606,4.197,4.197,4.197
		C136.141,24.721,137.747,22.908,137.747,20.524z"/>
	<path fill="#435A70" d="M198.433,37.883l-0.57,7.514c-3.161,1.865-5.856,2.746-10.416,2.746c-10.985,0-19.328-7.876-19.328-18.862
		c0-10.985,8.343-18.862,19.328-18.862c4.56,0,7.255,0.881,10.416,2.746l0.57,7.514h-0.985c-3.161-2.384-6.218-3.627-9.69-3.627
		c-7.876,0-12.281,5.234-12.281,12.229c0,6.996,4.404,12.229,12.281,12.229c3.472,0,6.529-1.243,9.69-3.627H198.433z"/>
	<path fill="#435A70" d="M220.771,11.144l16.064,36.273h-7.151L226.99,41.2h-14.613l-2.695,6.218h-7.151l16.064-36.273H220.771z
		 M214.968,34.981h9.431l-4.715-10.985L214.968,34.981z"/>
	<path fill="#435A70" d="M250.986,32.08h-1.762v15.338h-7.358V11.144h11.452c7.047,0,12.178,3.835,12.178,10.468
		c0,4.819-2.695,8.136-6.84,9.639l9.69,16.167h-8.135L250.986,32.08z M249.224,25.757h3.472c3.575,0,5.441-1.348,5.441-4.146
		c0-2.798-1.866-4.146-5.441-4.146h-3.472V25.757z"/>
	<path fill="#435A70" d="M287.056,26.69h17.514v15.598c-5.13,3.938-9.482,5.855-15.131,5.855c-10.985,0-19.328-7.876-19.328-18.862
		c0-10.985,8.861-18.862,20.105-18.862c5.078,0,8.551,1.244,11.711,3.265l0.57,7.514h-0.984c-4.25-3.058-7.773-4.146-11.245-4.146
		c-7.876,0-12.799,5.234-12.799,12.229c0,6.996,4.404,12.229,12.28,12.229c3.006,0,5.078-0.622,7.463-2.229v-6.373h-10.156V26.69z"
		/>
	<path fill="#435A70" d="M328.775,10.419c10.83,0,19.328,8.032,19.328,18.862s-8.498,18.862-19.328,18.862
		s-19.328-8.032-19.328-18.862S317.945,10.419,328.775,10.419z M328.775,41.821c6.84,0,11.97-4.922,11.97-12.54
		c0-7.617-5.13-12.54-11.97-12.54c-6.841,0-11.971,4.923-11.971,12.54C316.804,36.899,321.934,41.821,328.775,41.821z"/>
	<path fill="#435A70" d="M367.179,22.286l0.414-7.877c2.539-2.539,6.374-3.99,10.054-3.99c7.565,0,11.711,4.146,11.711,10.571
		c0,3.99-1.451,7.462-4.923,11.659l-7.1,8.551h13.162v6.218h-25.132v-1.036l14.095-17.67c1.917-2.436,2.85-4.457,2.85-6.841
		c0-3.109-2.072-5.233-5.44-5.233c-3.421,0-6.944,2.591-8.913,5.648H367.179z"/>
	<path fill="#435A70" d="M396.823,52.962c1.969-1.296,2.85-2.954,3.005-4.819c-2.176,0-3.886-1.762-3.886-3.938
		c0-2.228,1.762-4.042,3.938-4.042c2.228,0,4.041,1.814,4.041,4.042c0,5.545-3.005,8.084-6.633,10.053L396.823,52.962z"/>
	<path fill="#435A70" d="M456.209,11.144l9.639,36.273h-7.203l-5.233-19.225l-8.861,19.225h-1.658l-8.861-19.225l-5.233,19.225
		h-7.203l9.639-36.273h2.384l10.104,22.334l10.104-22.334H456.209z"/>
	<path fill="#435A70" d="M477.357,36.846c0,3.421,2.073,4.975,4.871,4.975c3.265,0,5.804-2.539,5.804-6.788V21.819h6.84v25.599
		h-6.84v-3.161c-1.813,2.332-5.026,3.887-8.395,3.887c-5.39,0-9.12-2.901-9.12-8.861V21.819h6.84V36.846z"/>
	<path fill="#435A70" d="M502.13,39.23c1.813,1.399,4.094,2.591,6.892,2.591c1.866,0,3.265-0.673,3.265-2.124
		c0-1.503-1.347-2.177-5.026-3.42c-3.886-1.296-6.218-3.835-6.218-7.255c0-4.819,4.094-7.929,9.431-7.929
		c2.799,0,4.819,0.519,6.736,1.658l0.26,6.529h-0.363c-2.124-1.398-3.938-2.384-6.581-2.384c-1.71,0-2.953,0.777-2.953,1.866
		c0,1.503,1.243,2.228,4.923,3.472c3.575,1.191,6.633,2.694,6.633,7.462c0,5.648-4.664,8.446-9.742,8.446
		c-3.835,0-6.84-0.984-9.12-2.487l1.555-6.426H502.13z"/>
	<path fill="#435A70" d="M546.905,38.971l-0.259,6.478c-3.316,1.917-6.736,2.694-10.156,2.694c-7.773,0-13.888-5.959-13.888-13.731
		c0-7.515,5.804-13.318,13.214-13.318c8.705,0,12.954,6.426,12.954,13.318v2.021h-19.639c0.777,3.887,3.834,5.907,7.824,5.907
		c3.109,0,6.167-0.726,9.224-3.368H546.905z M529.287,31.768h12.644c-0.362-3.16-2.85-5.389-6.114-5.389
		C532.81,26.379,530.219,28.296,529.287,31.768z"/>
	<path fill="#435A70" d="M560.796,36.846c0,3.421,2.073,4.975,4.871,4.975c3.265,0,5.804-2.539,5.804-6.788V21.819h6.84v25.599
		h-6.84v-3.161c-1.813,2.332-5.026,3.887-8.395,3.887c-5.389,0-9.12-2.901-9.12-8.861V21.819h6.84V36.846z"/>
	<path fill="#435A70" d="M617.541,31.976c0-3.109-1.451-4.561-3.938-4.561c-3.006,0-5.493,2.487-5.493,6.219v13.783h-6.84V31.976
		c0-3.109-1.348-4.561-3.99-4.561c-3.005,0-5.492,2.591-5.492,6.478v13.524h-6.841V21.819h6.841v3.161
		c1.606-2.229,4.923-3.887,8.083-3.887c3.473,0,6.167,1.141,7.514,3.628c2.229-2.332,4.975-3.628,8.81-3.628
		c4.923,0,8.188,3.006,8.188,8.136v18.188h-6.84V31.976z"/>
	<path fill="#435A70" d="M648.432,36.122c2.436,3.108,5.44,5.699,9.638,5.699c2.851,0,4.871-1.658,4.871-4.56
		c0-3.265-2.384-4.456-6.425-6.322c-5.545-2.539-8.758-5.647-8.758-10.57c0-6.271,5.182-9.95,10.882-9.95
		c4.664,0,7.462,1.347,9.017,2.746l0.259,7.721h-0.674c-2.486-2.694-5.285-4.457-8.446-4.457c-2.643,0-4.456,1.14-4.456,3.627
		c0,2.332,2.229,3.628,7.358,6.011c5.182,2.384,8.602,5.286,8.602,11.038c0,6.529-4.768,11.037-11.866,11.037
		c-4.923,0-8.706-1.658-10.934-3.523l0.414-8.498H648.432z"/>
	<path fill="#435A70" d="M691.238,40.888l-0.467,5.96c-2.176,0.984-3.316,1.295-5.907,1.295c-4.042,0-7.979-2.539-7.979-8.602
		V27.623h-4.25v-5.804h4.25V17.57l6.84-3.109v7.358h6.943v5.804h-6.943V39.23c0,2.28,1.243,3.161,2.798,3.161
		c1.089,0,2.28-0.259,3.938-1.503H691.238z"/>
	<path fill="#435A70" d="M713.575,29.489c-1.036-1.244-2.746-2.073-4.509-2.073c-2.953,0-5.699,1.813-5.699,6.062v13.939h-6.841
		V21.819h6.841v2.539c1.606-2.072,4.094-3.265,6.581-3.265c1.969,0,3.057,0.415,4.146,1.192l0.466,7.203H713.575z"/>
	<path fill="#435A70" d="M741.819,38.971l-0.259,6.478c-3.316,1.917-6.736,2.694-10.156,2.694c-7.773,0-13.888-5.959-13.888-13.731
		c0-7.515,5.804-13.318,13.214-13.318c8.705,0,12.954,6.426,12.954,13.318v2.021h-19.639c0.777,3.887,3.834,5.907,7.824,5.907
		c3.109,0,6.167-0.726,9.224-3.368H741.819z M724.201,31.768h12.644c-0.362-3.16-2.85-5.389-6.114-5.389
		C727.724,26.379,725.134,28.296,724.201,31.768z"/>
	<path fill="#435A70" d="M772.136,38.971l-0.259,6.478c-3.316,1.917-6.736,2.694-10.157,2.694c-7.772,0-13.887-5.959-13.887-13.731
		c0-7.515,5.804-13.318,13.214-13.318c8.705,0,12.954,6.426,12.954,13.318v2.021h-19.639c0.777,3.887,3.834,5.907,7.824,5.907
		c3.109,0,6.166-0.726,9.224-3.368H772.136z M754.518,31.768h12.644c-0.362-3.16-2.85-5.389-6.114-5.389
		C758.042,26.379,755.451,28.296,754.518,31.768z"/>
	<path fill="#435A70" d="M795.665,40.888l-0.467,5.96c-2.176,0.984-3.316,1.295-5.907,1.295c-4.042,0-7.979-2.539-7.979-8.602
		V27.623h-4.25v-5.804h4.25V17.57l6.84-3.109v7.358h6.943v5.804h-6.943V39.23c0,2.28,1.243,3.161,2.798,3.161
		c1.088,0,2.28-0.259,3.938-1.503H795.665z"/>
</g>
</svg>
