<?xml version="1.0" encoding="utf-8"?>
<!-- Generator: Adobe Illustrator 16.0.0, SVG Export Plug-In . SVG Version: 6.00 Build 0)  -->
<!DOCTYPE svg PUBLIC "-//W3C//DTD SVG 1.1//EN" "http://www.w3.org/Graphics/SVG/1.1/DTD/svg11.dtd">
<svg version="1.1" id="Layer_1" xmlns="http://www.w3.org/2000/svg" xmlns:xlink="http://www.w3.org/1999/xlink" x="0px" y="0px"
	 width="399.559px" height="50.451px" viewBox="0 0 399.559 50.451" enable-background="new 0 0 399.559 50.451"
	 xml:space="preserve">
<g>
	<path fill="#465A72" d="M25.361,0.952c14.21,0,25.361,10.539,25.361,24.749c0,14.211-11.151,24.75-25.361,24.75
		C11.15,50.451,0,39.912,0,25.701C0,11.491,11.15,0.952,25.361,0.952z M25.361,42.156c8.975,0,15.706-6.459,15.706-16.455
		c0-9.995-6.731-16.454-15.706-16.454S9.655,15.707,9.655,25.701C9.655,35.696,16.386,42.156,25.361,42.156z"/>
	<path fill="#465A72" d="M78.81,25.974c-1.36-1.632-3.604-2.72-5.916-2.72c-3.875,0-7.479,2.379-7.479,7.955v18.29h-8.976V15.91
		h8.976v3.332c2.107-2.72,5.371-4.284,8.635-4.284c2.584,0,4.012,0.544,5.439,1.564l0.612,9.451H78.81z"/>
	<path fill="#465A72" d="M82.62,32.705c0-11.287,7.479-17.746,16.658-17.746c4.692,0,8.227,1.36,10.675,4.147V0.544h8.975v48.955
		h-8.975v-3.536c-2.38,2.652-5.848,4.488-10.811,4.488C89.623,50.451,82.62,43.107,82.62,32.705z M110.361,32.705
		c0-5.439-3.808-9.451-9.383-9.451c-5.575,0-9.383,4.011-9.383,9.451s3.808,9.451,9.383,9.451
		C106.553,42.156,110.361,38.144,110.361,32.705z"/>
	<path fill="#465A72" d="M156.396,38.416l-0.34,8.499c-4.352,2.516-8.839,3.536-13.327,3.536c-10.199,0-18.222-7.819-18.222-18.019
		c0-9.859,7.615-17.474,17.338-17.474c11.423,0,16.998,8.431,16.998,17.474v2.652h-25.77c1.02,5.1,5.032,7.751,10.267,7.751
		c4.08,0,8.091-0.952,12.103-4.42H156.396z M133.278,28.965h16.59c-0.476-4.147-3.74-7.071-8.023-7.071
		C137.902,21.894,134.502,24.41,133.278,28.965z"/>
	<path fill="#465A72" d="M187.064,25.974c-1.36-1.632-3.604-2.72-5.916-2.72c-3.875,0-7.479,2.379-7.479,7.955v18.29h-8.975V15.91
		h8.975v3.332c2.108-2.72,5.372-4.284,8.635-4.284c2.584,0,4.012,0.544,5.439,1.564l0.612,9.451H187.064z"/>
	<path fill="#465A72" d="M213.313,32.705c0-10.063,8.363-17.746,18.426-17.746s18.426,7.683,18.426,17.746
		s-8.363,17.747-18.426,17.747S213.313,42.768,213.313,32.705z M241.19,32.705c0-5.643-4.352-9.451-9.451-9.451
		s-9.451,3.808-9.451,9.451c0,5.644,4.352,9.451,9.451,9.451S241.19,38.348,241.19,32.705z"/>
	<path fill="#465A72" d="M278.726,29.781c0-4.488-2.72-6.527-6.391-6.527c-4.284,0-7.615,3.332-7.615,8.907v17.338h-8.976V15.91
		h8.976v4.148c2.379-3.06,6.595-5.1,11.015-5.1c7.071,0,11.967,3.808,11.967,11.627v22.914h-8.975V29.781z"/>
	<path fill="#465A72" d="M294.64,0.544h8.976v48.955h-8.976V0.544z"/>
	<path fill="#465A72" d="M315.787,0c3.128,0,5.711,2.584,5.711,5.711c0,3.06-2.583,5.576-5.711,5.576
		c-3.06,0-5.575-2.516-5.575-5.576C310.211,2.584,312.727,0,315.787,0z M311.367,15.91h8.975v33.589h-8.975V15.91z"/>
	<path fill="#465A72" d="M351.077,29.781c0-4.488-2.72-6.527-6.391-6.527c-4.284,0-7.615,3.332-7.615,8.907v17.338h-8.976V15.91
		h8.976v4.148c2.379-3.06,6.595-5.1,11.015-5.1c7.071,0,11.967,3.808,11.967,11.627v22.914h-8.975V29.781z"/>
	<path fill="#465A72" d="M397.111,38.416l-0.34,8.499c-4.352,2.516-8.839,3.536-13.327,3.536c-10.199,0-18.222-7.819-18.222-18.019
		c0-9.859,7.615-17.474,17.338-17.474c11.423,0,16.998,8.431,16.998,17.474v2.652H373.79c1.02,5.1,5.031,7.751,10.267,7.751
		c4.08,0,8.091-0.952,12.103-4.42H397.111z M373.994,28.965h16.59c-0.476-4.147-3.739-7.071-8.023-7.071
		C378.617,21.894,375.218,24.41,373.994,28.965z"/>
</g>
</svg>
