<?xml version="1.0" encoding="utf-8"?>
<!-- Generator: Adobe Illustrator 16.0.0, SVG Export Plug-In . SVG Version: 6.00 Build 0)  -->
<!DOCTYPE svg PUBLIC "-//W3C//DTD SVG 1.1//EN" "http://www.w3.org/Graphics/SVG/1.1/DTD/svg11.dtd">
<svg version="1.1" id="Layer_1" xmlns="http://www.w3.org/2000/svg" xmlns:xlink="http://www.w3.org/1999/xlink" x="0px" y="0px"
	 width="524.979px" height="100.226px" viewBox="1.14 2.198 524.979 100.226" enable-background="new 1.14 2.198 524.979 100.226"
	 xml:space="preserve">
<g>
	<path fill="#435A70" d="M13.577,39.508L1.14,3.234h7.98L16.012,23.6l7.825-20.366h3.938L35.6,23.6l6.892-20.366h7.98L38.035,39.508
		h-3.213l-9.017-23.422l-9.017,23.422H13.577z"/>
	<path fill="#435A70" d="M73.64,31.062l-0.259,6.477c-3.316,1.918-6.736,2.695-10.156,2.695c-7.773,0-13.888-5.96-13.888-13.732
		c0-7.514,5.804-13.318,13.214-13.318c8.706,0,12.955,6.426,12.955,13.318v2.021h-19.64c0.777,3.886,3.835,5.907,7.825,5.907
		c3.109,0,6.167-0.726,9.224-3.368H73.64z M56.022,23.859h12.644c-0.363-3.161-2.85-5.39-6.115-5.39
		C59.546,18.469,56.955,20.387,56.022,23.859z"/>
	<path fill="#435A70" d="M79.655,26.708c0-8.602,5.7-13.525,12.696-13.525c3.576,0,6.27,1.037,8.136,3.161V2.198h6.84v37.31h-6.84
		v-2.694c-1.814,2.021-4.457,3.42-8.239,3.42C84.992,40.234,79.655,34.637,79.655,26.708z M100.797,26.708
		c0-4.146-2.902-7.203-7.151-7.203s-7.151,3.057-7.151,7.203s2.902,7.203,7.151,7.203S100.797,30.854,100.797,26.708z"/>
	<path fill="#435A70" d="M113.134,20.335h24.77v5.492h-24.77V20.335z"/>
	<path fill="#435A70" d="M145.11,28.211c2.436,3.109,5.441,5.7,9.638,5.7c2.85,0,4.871-1.658,4.871-4.56
		c0-3.265-2.384-4.457-6.426-6.322c-5.544-2.539-8.757-5.648-8.757-10.571c0-6.27,5.182-9.949,10.882-9.949
		c4.664,0,7.462,1.347,9.017,2.746l0.259,7.721h-0.674c-2.487-2.694-5.286-4.457-8.446-4.457c-2.643,0-4.457,1.14-4.457,3.627
		c0,2.332,2.228,3.627,7.358,6.011c5.182,2.384,8.602,5.286,8.602,11.038c0,6.529-4.767,11.038-11.866,11.038
		c-4.923,0-8.706-1.658-10.934-3.524l0.415-8.498H145.11z"/>
	<path fill="#435A70" d="M171.126,26.708c0-7.462,5.7-13.525,12.851-13.525c3.369,0,6.219,1.244,7.669,3.058v-2.332h6.84v25.599
		h-6.84v-2.332c-1.866,1.762-3.99,3.058-8.083,3.058C177.448,40.234,171.126,35.156,171.126,26.708z M191.957,26.708
		c0-3.938-2.643-7.203-6.996-7.203c-4.353,0-6.996,3.265-6.996,7.203c0,3.938,2.643,7.203,6.996,7.203
		C189.314,33.912,191.957,30.647,191.957,26.708z"/>
	<path fill="#435A70" d="M221.912,32.979l-0.466,5.959c-2.177,0.984-3.316,1.296-5.908,1.296c-4.042,0-7.98-2.539-7.98-8.603V19.713
		h-4.249v-5.804h4.249V9.66l6.84-3.109v7.358h6.943v5.804h-6.943v11.608c0,2.28,1.244,3.161,2.798,3.161
		c1.088,0,2.28-0.26,3.938-1.503H221.912z"/>
	<path fill="#435A70" d="M230.62,14.635c2.228,0,4.042,1.813,4.042,4.042c0,2.176-1.814,3.938-4.042,3.938
		c-2.176,0-3.938-1.762-3.938-3.938C226.682,16.448,228.444,14.635,230.62,14.635z M230.62,32.253c2.228,0,4.042,1.813,4.042,4.042
		c0,2.177-1.814,3.938-4.042,3.938c-2.176,0-3.938-1.762-3.938-3.938C226.682,34.067,228.444,32.253,230.62,32.253z"/>
	<path fill="#435A70" d="M258.449,6.603l4.922-3.369h2.436v36.274h-7.358V6.603z"/>
	<path fill="#435A70" d="M273.064,6.603l4.923-3.369h2.436v36.274h-7.358V6.603z"/>
	<path fill="#435A70" d="M290.787,32.253c2.228,0,4.042,1.813,4.042,4.042c0,2.177-1.814,3.938-4.042,3.938
		c-2.177,0-3.938-1.762-3.938-3.938C286.849,34.067,288.611,32.253,290.787,32.253z"/>
	<path fill="#435A70" d="M313.381,2.509c9.846,0,16.012,8.032,16.012,18.862c0,10.83-6.166,18.862-16.012,18.862
		s-16.012-8.032-16.012-18.862C297.369,10.541,303.535,2.509,313.381,2.509z M313.381,33.912c5.804,0,8.654-4.716,8.654-12.54
		c0-7.825-2.851-12.541-8.654-12.541s-8.653,4.715-8.653,12.541C304.728,29.196,307.577,33.912,313.381,33.912z"/>
	<path fill="#435A70" d="M351.11,2.509c9.846,0,16.012,8.032,16.012,18.862c0,10.83-6.166,18.862-16.012,18.862
		s-16.012-8.032-16.012-18.862C335.098,10.541,341.264,2.509,351.11,2.509z M351.11,33.912c5.804,0,8.654-4.716,8.654-12.54
		c0-7.825-2.851-12.541-8.654-12.541s-8.653,4.715-8.653,12.541C342.456,29.196,345.306,33.912,351.11,33.912z"/>
	<path fill="#435A70" d="M372.463,20.335h24.77v5.492h-24.77V20.335z"/>
	<path fill="#435A70" d="M403.351,6.603l4.923-3.369h2.436v36.274h-7.358V6.603z"/>
	<path fill="#435A70" d="M429.47,2.509c6.581,0,11.244,4.301,11.244,9.535c0,3.316-1.451,5.7-4.146,7.876
		c3.109,1.762,5.441,4.353,5.441,9.224c0,5.078-4.509,11.09-12.54,11.09c-8.032,0-12.54-6.012-12.54-11.09
		c0-4.871,2.331-7.462,5.44-9.224c-2.694-2.176-4.146-4.56-4.146-7.876C418.225,6.81,422.889,2.509,429.47,2.509z M423.977,28.367
		c0,3.42,2.643,5.648,5.493,5.648c2.85,0,5.492-2.229,5.492-5.648s-2.643-5.647-5.492-5.647
		C426.619,22.719,423.977,24.947,423.977,28.367z M433.667,12.614c0-2.384-1.606-4.197-4.197-4.197s-4.197,1.813-4.197,4.197
		s1.606,4.197,4.197,4.197S433.667,14.998,433.667,12.614z"/>
	<path fill="#435A70" d="M449.785,32.253c2.229,0,4.042,1.813,4.042,4.042c0,2.177-1.813,3.938-4.042,3.938
		c-2.176,0-3.938-1.762-3.938-3.938C445.848,34.067,447.61,32.253,449.785,32.253z"/>
	<path fill="#435A70" d="M472.379,2.509c9.846,0,16.012,8.032,16.012,18.862c0,10.83-6.166,18.862-16.012,18.862
		s-16.012-8.032-16.012-18.862C456.367,10.541,462.533,2.509,472.379,2.509z M472.379,33.912c5.804,0,8.654-4.716,8.654-12.54
		c0-7.825-2.851-12.541-8.654-12.541s-8.653,4.715-8.653,12.541C463.726,29.196,466.575,33.912,472.379,33.912z"/>
	<path fill="#435A70" d="M510.108,2.509c9.846,0,16.012,8.032,16.012,18.862c0,10.83-6.166,18.862-16.012,18.862
		s-16.012-8.032-16.012-18.862C494.096,10.541,500.262,2.509,510.108,2.509z M510.108,33.912c5.804,0,8.654-4.716,8.654-12.54
		c0-7.825-2.851-12.541-8.654-12.541s-8.653,4.715-8.653,12.541C501.454,29.196,504.304,33.912,510.108,33.912z"/>
	<path fill="#435A70" d="M3.161,90.403c2.436,3.108,5.441,5.7,9.638,5.7c2.85,0,4.871-1.658,4.871-4.561
		c0-3.265-2.384-4.456-6.426-6.322C5.7,82.681,2.488,79.573,2.488,74.65c0-6.271,5.182-9.949,10.882-9.949
		c4.664,0,7.462,1.347,9.017,2.746l0.259,7.721h-0.674c-2.487-2.694-5.286-4.456-8.446-4.456c-2.643,0-4.457,1.14-4.457,3.627
		c0,2.332,2.228,3.628,7.358,6.012c5.182,2.383,8.602,5.285,8.602,11.037c0,6.529-4.767,11.037-11.866,11.037
		c-4.923,0-8.706-1.658-10.934-3.523l0.415-8.498H3.161z"/>
	<path fill="#435A70" d="M37.054,91.128c0,3.42,2.073,4.975,4.871,4.975c3.265,0,5.804-2.54,5.804-6.789V76.1h6.84v25.599h-6.84
		v-3.161c-1.813,2.332-5.026,3.887-8.395,3.887c-5.389,0-9.12-2.901-9.12-8.861V76.1h6.84V91.128z"/>
	<path fill="#435A70" d="M78.72,86.671c0-3.42-2.073-4.975-4.871-4.975c-3.265,0-5.804,2.539-5.804,6.788v13.214h-6.84V76.1h6.84
		v3.161c1.814-2.332,5.026-3.886,8.395-3.886c5.39,0,9.12,2.901,9.12,8.86v17.463h-6.84V86.671z"/>
	<path fill="#435A70" d="M95.305,76.826c2.228,0,4.042,1.813,4.042,4.042c0,2.177-1.814,3.938-4.042,3.938
		c-2.176,0-3.938-1.762-3.938-3.938C91.367,78.639,93.129,76.826,95.305,76.826z M95.305,94.445c2.228,0,4.042,1.813,4.042,4.041
		c0,2.177-1.814,3.938-4.042,3.938c-2.176,0-3.938-1.762-3.938-3.938C91.367,96.258,93.129,94.445,95.305,94.445z"/>
	<path fill="#435A70" d="M123.135,68.794l4.923-3.368h2.436v36.272h-7.358V68.794z"/>
	<path fill="#435A70" d="M137.749,68.794l4.923-3.368h2.436v36.272h-7.358V68.794z"/>
	<path fill="#435A70" d="M155.473,94.445c2.228,0,4.042,1.813,4.042,4.041c0,2.177-1.814,3.938-4.042,3.938
		c-2.176,0-3.938-1.762-3.938-3.938C151.535,96.258,153.297,94.445,155.473,94.445z"/>
	<path fill="#435A70" d="M178.067,64.701c9.846,0,16.012,8.031,16.012,18.861s-6.167,18.862-16.012,18.862
		c-9.845,0-16.012-8.032-16.012-18.862S168.222,64.701,178.067,64.701z M178.067,96.103c5.804,0,8.654-4.716,8.654-12.541
		c0-7.824-2.85-12.54-8.654-12.54s-8.654,4.716-8.654,12.54C169.413,91.387,172.263,96.103,178.067,96.103z"/>
	<path fill="#435A70" d="M215.796,64.701c9.846,0,16.012,8.031,16.012,18.861s-6.167,18.862-16.012,18.862
		c-9.845,0-16.012-8.032-16.012-18.862S205.95,64.701,215.796,64.701z M215.796,96.103c5.804,0,8.654-4.716,8.654-12.541
		c0-7.824-2.85-12.54-8.654-12.54s-8.654,4.716-8.654,12.54C207.142,91.387,209.992,96.103,215.796,96.103z"/>
	<path fill="#435A70" d="M237.15,82.526h24.77v5.493h-24.77V82.526z"/>
	<path fill="#435A70" d="M268.036,68.794l4.923-3.368h2.436v36.272h-7.358V68.794z"/>
	<path fill="#435A70" d="M304.001,73.354c-2.488-1.917-4.457-2.436-6.582-2.436c-4.56,0-7.876,3.68-8.498,10.001
		c1.451-1.398,4.404-2.694,7.721-2.694c6.686,0,11.504,4.871,11.504,11.711c0,6.943-5.803,12.488-12.902,12.488
		c-4.197,0-8.136-1.71-10.416-4.871c-2.176-3.005-3.264-6.995-3.264-12.229c0-10.675,4.975-20.624,15.855-20.624
		c2.695,0,4.924,0.569,6.736,1.762l0.727,6.892H304.001z M289.181,90.195c0,3.421,2.279,6.012,5.959,6.012
		c3.679,0,5.959-2.591,5.959-6.012c0-3.42-2.28-6.011-5.959-6.011C291.46,84.184,289.181,86.775,289.181,90.195z"/>
	<path fill="#435A70" d="M315.612,94.445c2.228,0,4.042,1.813,4.042,4.041c0,2.177-1.814,3.938-4.042,3.938
		c-2.177,0-3.938-1.762-3.938-3.938C311.673,96.258,313.435,94.445,315.612,94.445z"/>
	<path fill="#435A70" d="M338.205,64.701c9.846,0,16.012,8.031,16.012,18.861s-6.166,18.862-16.012,18.862
		s-16.012-8.032-16.012-18.862S328.36,64.701,338.205,64.701z M338.205,96.103c5.804,0,8.654-4.716,8.654-12.541
		c0-7.824-2.851-12.54-8.654-12.54s-8.653,4.716-8.653,12.54C329.552,91.387,332.402,96.103,338.205,96.103z"/>
	<path fill="#435A70" d="M375.934,64.701c9.846,0,16.012,8.031,16.012,18.861s-6.166,18.862-16.012,18.862
		s-16.012-8.032-16.012-18.862S366.088,64.701,375.934,64.701z M375.934,96.103c5.804,0,8.654-4.716,8.654-12.541
		c0-7.824-2.851-12.54-8.654-12.54s-8.653,4.716-8.653,12.54C367.281,91.387,370.13,96.103,375.934,96.103z"/>
</g>
</svg>
