<?xml version="1.0" encoding="utf-8"?>
<!-- Generator: Adobe Illustrator 16.0.0, SVG Export Plug-In . SVG Version: 6.00 Build 0)  -->
<!DOCTYPE svg PUBLIC "-//W3C//DTD SVG 1.1//EN" "http://www.w3.org/Graphics/SVG/1.1/DTD/svg11.dtd">
<svg version="1.1" id="Layer_1" xmlns="http://www.w3.org/2000/svg" xmlns:xlink="http://www.w3.org/1999/xlink" x="0px" y="0px"
	 width="24.354px" height="50px" viewBox="0 0 24.354 50" enable-background="new 0 0 24.354 50" xml:space="preserve">
<g>
	<path fill="#435A70" d="M24.326,0.333c-0.054,2.673-0.125,5.297-0.197,7.914c-0.129,0.107-0.263,0.07-0.392,0.07
		C22.061,8.31,20.38,8.298,18.704,8.29c-0.484-0.001-0.964,0.038-1.435,0.147c-0.165,0.038-0.328,0.09-0.483,0.15
		c-0.653,0.243-1.085,0.702-1.312,1.354c-0.153,0.446-0.209,0.911-0.231,1.381c-0.019,0.221-0.019,0.442-0.019,0.662v5.625v0.407
		c0.125,0.014,0.224,0.031,0.325,0.032c0.742,0.003,1.48,0,2.226,0c2.042,0,4.085,0,6.128,0.003c0.142,0,0.282,0.007,0.418,0.011
		c0.062,0.358,0.033,1.08-0.077,2.823c-0.059,0.947-0.084,1.896-0.132,2.845c-0.044,0.935-0.095,1.867-0.145,2.822
		c-0.094,0.016-0.166,0.036-0.238,0.04c-0.118,0.006-0.237,0.001-0.353,0.001c-2.549,0-5.102,0-7.654,0.002
		c-0.151,0-0.31-0.026-0.486,0.048c-0.025,0.514-0.008,1.032-0.013,1.551v1.564v1.519v1.565v1.561v1.56v1.563v1.525v1.56v1.562
		v1.562v1.561v1.525v1.561v1.581c-0.122,0.011-0.22,0.03-0.321,0.033c-0.78,0.004-1.562,0-2.342,0H6.664
		c-0.139,0-0.282-0.003-0.434-0.006c-0.014-0.085-0.034-0.146-0.035-0.208c-0.007-0.132-0.004-0.261-0.004-0.393V27.133
		c0-0.165,0.014-0.333-0.021-0.488c-0.175-0.076-0.334-0.048-0.487-0.048c-1.719-0.002-3.437,0-5.155-0.002
		c-0.154,0-0.309-0.004-0.48-0.005c-0.017-0.096-0.043-0.167-0.043-0.242C-0.001,25.998,0,25.646,0,25.293v-6.755V18.12
		c0.149-0.107,0.299-0.066,0.434-0.067c1.382-0.003,2.762-0.003,4.142-0.003h1.25h0.33c0.014-0.109,0.033-0.192,0.036-0.276
		c0.001-0.563,0-1.121,0-1.681c0-1.588,0.001-3.178,0-4.765c0-0.702,0.02-1.408,0.121-2.103C6.895,5.28,8.983,2.5,12.698,0.981
		c1.063-0.434,2.18-0.684,3.32-0.833c1.387-0.181,2.779-0.167,4.17-0.112c0.78,0.037,1.56,0.074,2.34,0.13
		C23.107,0.205,23.688,0.272,24.326,0.333"/>
</g>
</svg>
