<?xml version="1.0" encoding="utf-8"?>
<!-- Generator: Adobe Illustrator 16.0.0, SVG Export Plug-In . SVG Version: 6.00 Build 0)  -->
<!DOCTYPE svg PUBLIC "-//W3C//DTD SVG 1.1//EN" "http://www.w3.org/Graphics/SVG/1.1/DTD/svg11.dtd">
<svg version="1.1" id="Layer_1" xmlns="http://www.w3.org/2000/svg" xmlns:xlink="http://www.w3.org/1999/xlink" x="0px" y="0px"
	 width="49.949px" height="50px" viewBox="0 0 49.949 50" enable-background="new 0 0 49.949 50" xml:space="preserve">
<g>
	<path fill="#435A70" d="M45.528,24.573c-0.035,0-0.068-0.002-0.101-0.002c0-1.969,0.041-3.942-0.013-5.91
		c-0.048-1.894-0.121-3.792-0.312-5.675C44.672,8.764,42.159,5.853,38,5.066c-2.219-0.419-4.527-0.478-6.797-0.521
		c-4.158-0.078-8.318-0.066-12.477-0.002c-2.146,0.033-4.312,0.109-6.427,0.438C8.688,5.54,6.222,7.612,5.224,11.193
		c-0.319,1.146-0.505,2.364-0.535,3.554c-0.107,4.52-0.173,9.044-0.157,13.564c0.011,2.876,0.076,5.764,0.326,8.627
		c0.368,4.237,2.903,7.139,7.063,7.937c2.237,0.429,4.562,0.485,6.853,0.528c4.138,0.078,8.279,0.056,12.42,0.009
		c1.928-0.022,3.864-0.125,5.783-0.317c1.78-0.175,3.445-0.756,4.875-1.893c2.319-1.844,3.215-4.387,3.351-7.207
		C45.388,32.194,45.427,28.38,45.528,24.573 M24.955,50c-3.372-0.061-6.746-0.091-10.117-0.186
		c-2.911-0.086-5.734-0.613-8.259-2.164c-3.311-2.032-5.331-5.019-5.975-8.813c-0.387-2.27-0.524-4.6-0.558-6.907
		C-0.03,26.99,0,22.046,0.053,17.106c0.028-2.624,0.115-5.255,0.989-7.775c1.676-4.833,5.077-7.763,10.045-8.718
		c2.255-0.434,4.597-0.531,6.903-0.566c4.959-0.077,9.921-0.048,14.881,0.008c2.604,0.028,5.217,0.115,7.719,0.979
		c4.855,1.677,7.805,5.084,8.75,10.079c0.43,2.258,0.528,4.599,0.563,6.905c0.076,4.941,0.045,9.884-0.007,14.827
		c-0.028,2.62-0.117,5.252-0.991,7.772c-1.673,4.833-5.073,7.765-10.043,8.723c-2.255,0.432-4.596,0.478-6.905,0.568
		c-2.329,0.091-4.667,0.02-7.002,0.02C24.955,49.953,24.955,49.979,24.955,50"/>
	<path fill="#435A70" d="M24.986,33.295c4.566-0.008,8.316-3.771,8.307-8.332c-0.008-4.566-3.774-8.32-8.329-8.309
		c-4.573,0.014-8.316,3.77-8.31,8.332C16.663,29.551,20.427,33.306,24.986,33.295 M24.936,37.798
		c-7.122-0.002-12.787-5.726-12.785-12.915c0.003-7.086,5.763-12.738,12.971-12.729c7.038,0.008,12.683,5.785,12.675,12.97
		C37.789,32.121,32.024,37.801,24.936,37.798"/>
	<path fill="#435A70" d="M38.356,8.652c1.685,0.014,2.961,1.343,2.942,3.059c-0.019,1.637-1.396,2.983-3.02,2.955
		c-1.669-0.029-3.027-1.417-2.995-3.058C35.315,9.937,36.666,8.637,38.356,8.652"/>
</g>
</svg>
