<?xml version="1.0" encoding="utf-8"?>
<!-- Generator: Adobe Illustrator 16.0.0, SVG Export Plug-In . SVG Version: 6.00 Build 0)  -->
<!DOCTYPE svg PUBLIC "-//W3C//DTD SVG 1.1//EN" "http://www.w3.org/Graphics/SVG/1.1/DTD/svg11.dtd">
<svg version="1.1" id="Layer_1" xmlns="http://www.w3.org/2000/svg" xmlns:xlink="http://www.w3.org/1999/xlink" x="0px" y="0px"
	 width="708.529px" height="314.905px" viewBox="0 0 708.529 314.905" enable-background="new 0 0 708.529 314.905"
	 xml:space="preserve">
<path fill="#465A72" d="M355.174,314.905l-13.167-26.383c3.973-2.006,8.463-3.137,13.218-3.137c4.723,0,9.185,1.115,13.138,3.096
	L355.174,314.905z M45.435,177.341c-4.896,3.693-9.632,5.619-15.011,5.619c-12.201,0-19.025-8.107-19.025-18.943
	c0-10.837,6.824-18.946,19.025-18.946c5.379,0,10.115,1.926,15.011,5.619h1.526l-0.883-11.641
	c-4.897-2.889-9.071-4.254-16.136-4.254C12.924,134.795,0,146.997,0,164.017c0,17.018,12.924,29.219,29.942,29.219
	c7.065,0,11.239-1.365,16.136-4.254l0.883-11.641H45.435z M95.278,192.112h11.399v-56.193H95.278v21.754H72.961v-21.754H61.562
	v56.193h11.399v-24.805h22.317V192.112z M121.926,192.112h34.428v-9.633h-23.029V168.03h19.402v-9.633h-19.402v-12.845h22.708
	v-9.633h-34.107V192.112z M172.008,192.112h34.428v-9.633h-23.029V168.03h20.21v-9.633h-20.21v-12.845h22.708v-9.633h-34.107
	V192.112z M222.176,174.612l-0.642,13.164c3.452,2.891,9.312,5.459,16.938,5.459c10.998,0,18.383-6.984,18.383-17.098
	c0-8.91-5.298-13.406-13.326-17.1c-7.947-3.692-11.399-5.7-11.399-9.311c0-3.854,2.811-5.619,6.904-5.619
	c4.897,0,9.232,2.729,13.085,6.903h1.044l-0.402-11.962c-2.408-2.167-6.743-4.254-13.968-4.254c-8.83,0-16.858,5.7-16.858,15.413
	c0,7.626,4.978,12.443,13.567,16.376c6.262,2.891,9.954,4.736,9.954,9.793c0,4.496-3.131,7.064-7.546,7.064
	c-6.502,0-11.158-4.014-14.931-8.83H222.176z M270.644,192.112h36.043v-9.633h-24.645V168.03h21.825v-9.633h-21.825v-12.845h24.324
	v-9.633h-35.722V192.112z M372.443,135.919l-17.27,34.599l-17.27-34.599h-3.692l-14.931,56.193h11.158l8.108-29.783l15.343,29.783
	h2.568l15.343-29.783l8.108,29.783h11.157l-14.93-56.193H372.443z M430.012,183.442c-10.596,0-18.543-7.627-18.543-19.426
	c0-11.801,7.947-19.427,18.543-19.427c10.597,0,18.545,7.626,18.545,19.427C448.557,175.815,440.608,183.442,430.012,183.442
	 M430.012,134.796c-16.777,0-29.941,12.441-29.941,29.22c0,16.777,13.164,29.219,29.941,29.219
	c16.778,0,29.942-12.441,29.942-29.219C459.954,147.238,446.79,134.796,430.012,134.796 M524.854,192.112v-56.193h-11.399v33.474
	l-33.725-33.474h-4.816v56.193h11.399v-33.477l33.724,33.477H524.854z M565.55,169.634h15.733v9.875
	c-3.692,2.488-6.903,3.451-11.56,3.451c-12.201,0-19.024-8.107-19.024-18.943c0-10.838,7.625-18.946,19.828-18.946
	c5.377,0,10.836,1.686,17.418,6.422h1.526l-0.884-11.641c-4.896-3.13-10.274-5.056-18.143-5.056
	c-17.418,0-31.146,12.201-31.146,29.22c0,17.018,12.924,29.219,29.942,29.219c8.75,0,15.494-2.971,23.44-9.07v-24.162H565.55
	V169.634z M609.868,192.112h39.473v-9.633h-28.073V168.03h24.446v-9.633h-24.446v-12.845h27.752v-9.633h-39.151V192.112z
	 M676.394,145.714h7.892c5.54,0,8.43,2.087,8.43,6.421c0,4.335-2.89,6.422-8.43,6.422h-7.892V145.714z M695.927,192.112h12.603
	l-15.012-25.047c6.422-2.326,10.596-7.465,10.596-14.93c0-10.275-7.947-16.216-18.864-16.216h-20.255v56.193h11.399v-23.762h5.243
	L695.927,192.112z M212.425,45.895l6.265-3.53l12.189,21.632l5.296-2.983l-12.188-21.632l6.266-3.53l-2.522-4.477l-17.828,10.045
	L212.425,45.895z M263.978,47.808l5.587-2.394l-11.803-27.54l-5.587,2.394l4.57,10.661l-10.937,4.688l-4.57-10.661l-5.587,2.394
	l11.803,27.539l5.587-2.394l-5.211-12.157l10.938-4.687L263.978,47.808z M276.917,42.919l18.418-5.507l-1.472-4.922l-12.593,3.765
	l-2.207-7.383l11.978-3.581l-1.472-4.922l-11.978,3.581l-1.962-6.563l12.429-3.716l-1.472-4.922l-18.253,5.457L276.917,42.919z
	 M317.378,20.111l5.472-0.739c3.181-0.43,4.57,0.895,4.873,3.143c0.305,2.248-0.683,3.894-3.865,4.323l-5.472,0.739L317.378,20.111z
	 M315.772,8.232l4.455-0.603c3.564-0.48,4.448,0.955,4.695,2.779c0.246,1.824-0.226,3.442-3.79,3.924l-4.455,0.602L315.772,8.232z
	 M313.061,33.567l12.048-1.629c5.346-0.722,9.453-4.214,8.708-9.729c-0.51-3.776-3.4-5.977-6.871-6.416
	c2.275-1.388,4.061-3.831,3.62-7.098c-0.613-4.54-4.505-7.124-11.038-6.242L309.049,3.87L313.061,33.567z M348.883,5.272
	l2.868-0.041c2.954-0.043,4.511,1.048,4.545,3.359c0.033,2.312-1.493,3.447-4.446,3.49l-2.868,0.041L348.883,5.272z M358.314,29.883
	l6.721-0.098l-8.197-13.239c3.406-1.29,5.594-4.062,5.537-8.044c-0.08-5.479-4.362-8.585-10.185-8.501l-9.461,0.136l0.432,29.964
	l6.079-0.087l-0.183-12.671l1.456-0.021L358.314,29.883z M371.098,30.327l6.064,0.423l2.087-29.894l-6.063-0.425L371.098,30.327z
	 M386.129,22.121l-1.376,6.893c1.594,1.796,4.481,3.612,8.505,4.214c5.799,0.866,10.245-2.236,11.041-7.57
	c0.702-4.7-1.738-7.488-5.682-10.067c-3.9-2.574-5.562-3.904-5.278-5.81c0.304-2.033,1.925-2.742,4.084-2.42
	c2.582,0.386,4.653,2.167,6.356,4.672l0.552,0.082l0.729-6.34c-1.1-1.333-3.221-2.775-7.031-3.344
	c-4.657-0.695-9.34,1.678-10.104,6.801c-0.601,4.021,1.644,6.954,5.865,9.705c3.075,2.018,4.877,3.282,4.479,5.95
	c-0.355,2.371-2.209,3.479-4.537,3.131c-3.43-0.512-5.569-2.996-7.18-5.833L386.129,22.121z M413.459,10.841l6.977,1.754
	l-6.056,24.084l5.897,1.481l6.055-24.084l6.977,1.755l1.252-4.983l-19.849-4.989L413.459,10.841z M447.235,42.021
	c-5.279-2.016-7.788-7.328-5.543-13.208c2.245-5.879,7.653-8.166,12.935-6.15c5.279,2.016,7.788,7.326,5.543,13.207
	C457.926,41.749,452.516,44.037,447.235,42.021 M456.49,17.783c-8.359-3.191-17.286,0.504-20.477,8.862
	c-3.192,8.359,1,17.063,9.358,20.254c8.359,3.193,17.286-0.502,20.478-8.861S464.85,20.975,456.49,17.783 M466.916,55.413
	l18.242,9.825l2.436-4.522l-12.89-6.942l11.774-21.861l-5.353-2.883L466.916,55.413z"/>
</svg>
