<?xml version="1.0" encoding="utf-8"?>
<!-- Generator: Adobe Illustrator 16.0.0, SVG Export Plug-In . SVG Version: 6.00 Build 0)  -->
<!DOCTYPE svg PUBLIC "-//W3C//DTD SVG 1.1//EN" "http://www.w3.org/Graphics/SVG/1.1/DTD/svg11.dtd">
<svg version="1.1" id="Layer_1" xmlns="http://www.w3.org/2000/svg" xmlns:xlink="http://www.w3.org/1999/xlink" x="0px" y="0px"
	 width="58.328px" height="50px" viewBox="0 0 58.328 50" enable-background="new 0 0 58.328 50" xml:space="preserve">
<g>
	<path fill="#435A70" d="M0,43.902c6.27,0.984,11.719-0.942,16.861-4.464c-0.335-0.103-0.584-0.178-0.832-0.254
		c-2.092-0.639-4.091-1.47-5.834-2.819c-1.971-1.529-3.239-3.515-3.841-5.93c-0.017-0.069-0.031-0.139-0.04-0.212
		c-0.005-0.023,0.014-0.052,0.035-0.115c1.344,0.081,2.703,0.417,4.129-0.02c-0.46-0.251-0.879-0.478-1.292-0.71
		c-2.199-1.234-4.16-2.729-5.485-4.934c-0.96-1.596-1.475-3.337-1.646-5.183c-0.056-0.621-0.076-1.245-0.118-1.943
		c1.39,0.645,2.676,1.354,4.209,1.377c-0.401-0.511-0.824-0.985-1.179-1.507c-2.12-3.134-3.147-6.583-2.895-10.374
		c0.097-1.456,0.522-2.836,1.227-4.121c0.076-0.139,0.16-0.272,0.243-0.404C3.563,2.254,3.604,2.231,3.66,2.18
		C4.091,2.639,4.512,3.102,4.95,3.551c2.365,2.438,4.872,4.714,7.727,6.579c3.588,2.343,7.483,3.921,11.71,4.644
		c1.083,0.187,2.18,0.298,3.269,0.439c0.137,0.017,0.275,0.003,0.413,0.003c-0.056-0.779-0.147-1.516-0.157-2.255
		c-0.062-4.464,1.828-7.956,5.419-10.525c2.406-1.724,5.13-2.559,8.106-2.422c2.977,0.136,5.513,1.281,7.555,3.463
		c0.282,0.301,0.504,0.396,0.905,0.246c1.604-0.603,3.236-1.129,4.827-1.761c0.677-0.27,1.277-0.73,1.989-1.147
		c-0.094,3.055-1.936,4.908-4.24,6.53c0.689,0.15,1.324,0.081,1.933-0.108c1.064-0.331,2.115-0.709,3.17-1.062
		c0.225-0.076,0.455-0.136,0.751-0.225c-0.266,0.935-0.625,1.753-1.22,2.405c-0.955,1.043-1.988,2.013-2.987,3.014
		c-0.051,0.049-0.107,0.093-0.159,0.143c-1.258,1.205-1.226,1.206-1.263,2.945c-0.156,7.038-1.961,13.603-5.705,19.597
		c-2.907,4.653-6.684,8.435-11.383,11.277c-4.133,2.499-8.604,4.013-13.421,4.5c-5.035,0.509-9.924-0.148-14.689-1.818
		c-1.47-0.514-2.953-0.994-4.396-1.575c-1.154-0.465-2.128-1.224-2.897-2.218C0.14,44.135,0.087,44.035,0,43.902"/>
</g>
</svg>
